<svg xmlns="http://www.w3.org/2000/svg" viewBox="0 0 1200 420" width="1200" height="420">
  <defs>
    <linearGradient id="bg" x1="0" y1="0" x2="1" y2="1">
      <stop offset="0" stop-color="#f8fafc"/>
      <stop offset="1" stop-color="#e0e7ff"/>
    </linearGradient>
    <linearGradient id="accent" x1="0" y1="0" x2="1" y2="0">
      <stop offset="0" stop-color="#0284c7"/>
      <stop offset="0.5" stop-color="#7c3aed"/>
      <stop offset="1" stop-color="#db2777"/>
    </linearGradient>
  </defs>
  <rect width="1200" height="420" fill="url(#bg)"/>

  <g stroke="#cbd5e1" stroke-width="1" opacity="0.6">
    <line x1="0" y1="105" x2="1200" y2="105"/>
    <line x1="0" y1="210" x2="1200" y2="210"/>
    <line x1="0" y1="315" x2="1200" y2="315"/>
    <line x1="300" y1="0" x2="300" y2="420"/>
    <line x1="600" y1="0" x2="600" y2="420"/>
    <line x1="900" y1="0" x2="900" y2="420"/>
  </g>

  <g transform="translate(80, 120)">
    <path d="M 90,0 L 180,30 L 180,120 Q 180,170 90,210 Q 0,170 0,120 L 0,30 Z"
          fill="none" stroke="url(#accent)" stroke-width="4"/>
    <text x="90" y="135" text-anchor="middle" fill="url(#accent)"
          font-family="ui-monospace, 'SF Mono', Menlo, monospace" font-size="64" font-weight="700">#</text>
  </g>

  <text x="320" y="200" fill="#0f172a"
        font-family="ui-sans-serif, -apple-system, 'Helvetica Neue', sans-serif"
        font-size="92" font-weight="800" letter-spacing="-2">ClearHash</text>

  <text x="320" y="245" fill="#475569"
        font-family="ui-sans-serif, -apple-system, 'Helvetica Neue', sans-serif"
        font-size="22" font-weight="400">
    Rebuild every package. Compare every byte. Block every tamper.
  </text>

  <g transform="translate(320, 290)" font-family="ui-monospace, 'SF Mono', Menlo, monospace">
    <text x="0" y="0" fill="#64748b" font-size="18">$ </text>
    <text x="20" y="0" fill="#0f172a" font-size="18">clearhash verify </text>
    <text x="200" y="0" fill="#0284c7" font-size="18">npm:sigstore@2.3.1</text>
    <text x="0" y="32" fill="#16a34a" font-size="18">✓ MATCH </text>
    <text x="80" y="32" fill="#475569" font-size="18">tree-hash ec714016d7e4ce74…</text>
  </g>
</svg>
